<svg xmlns="http://www.w3.org/2000/svg" viewBox="0 0 1200 1200">
  <g fill="#FFF">
    <path d="M278.4 622.1H210v-35.9h176.5v35.9h-68.4v187.2h-39.7V622.1zM426.5 586.1H470l41.9 160.7h.6l50.1-160.7h39.1l49.2 160.7h.6l43.8-160.7h40.3l-64.9 223.1h-37.8l-51.7-169.9h-.6l-51.7 169.9h-36.6l-65.8-223.1zM871.2 580.5c69.7-1.3 118.8 45.4 118.8 116.9 0 69.7-49.2 116.3-118.8 117.5-68.7 0-117.9-46.6-117.9-116.3 0-71.5 49.2-118.1 117.9-118.1zm.3 198.5c46.3 0 76.9-35.3 76.9-82.9 0-44.4-30.6-79.7-76.9-79.7-46 0-76.6 35.3-76.6 79.7 0 47.6 30.6 82.9 76.6 82.9z"/>
    <g>
      <path d="M527.8 385h142.4v134H527.8V385zm108.5 88.9c0-12.2-8.1-21.4-21-25 3.5-1.8 6.3-4 8.3-6.6 2.7-3.6 4-8 4-13.1 0-6.3-2.5-12.7-7.8-17.5-5.3-4.8-13.4-7.9-24.3-7.9h-30.4v96.5h35.6c12.7 0 21.6-3.5 27.4-8.5 5.8-5.1 8.2-11.8 8.2-17.9z"/><path d="M618.6 472c0 3.2-1 6.4-3.9 8.9-2.8 2.5-7.8 4.4-15.9 4.4h-16.4V459h15.7c7.3 0 12.5 1.5 15.8 3.8 3.2 2.3 4.7 5.3 4.7 9.2M605.3 440.4c3.1-2.2 4.5-5.3 4.6-10 0-3.2-.9-6-3.2-8-2.3-2.1-6.2-3.5-12.6-3.5h-11.6v25h8c6.8 0 11.7-1.3 14.8-3.5"/>
      <g>
        <path d="M363.7 385h142.4v134H363.7V385zm108.5 88.9c0-12.2-8.1-21.4-21-25 3.5-1.8 6.3-4 8.3-6.6 2.7-3.6 4-8 4-13.1 0-6.3-2.5-12.7-7.8-17.5-5.3-4.8-13.4-7.9-24.3-7.9H401v96.5h35.6c12.7 0 21.6-3.5 27.4-8.5 5.8-5.1 8.2-11.8 8.2-17.9z"/><path d="M441.2 440.4c3-2.2 4.5-5.3 4.6-10 0-3.2-.9-6-3.3-8-2.3-2.1-6.2-3.5-12.6-3.5h-11.6v25h8c6.9 0 11.8-1.3 14.9-3.5M449.8 462.7c-3.3-2.3-8.5-3.8-15.8-3.8h-15.7v26.3h16.4c8.2 0 13.1-1.9 15.9-4.4 2.8-2.5 3.8-5.7 3.8-8.9.1-3.8-1.4-6.8-4.6-9.2"/>
      </g>
      <path d="M691.9 385h142.4v134H691.9V385zM806 474.5l-2.3 1.4c-11 6.7-23 10.3-33.9 10.3-23.3-.1-38.7-13.9-38.8-34 0-19.7 16.1-34.2 38.2-34.3 11.2 0 21.4 2.9 33.5 9.6l2.2 1.2v-18l-1-.4c-13.7-5.4-24.2-7.8-34.7-7.8-16.1 0-30.2 5.3-40.1 14.4-10 9-15.9 21.8-15.9 36.5 0 10.2 4.2 22.2 13.3 31.7 9 9.5 22.9 16.5 41.9 16.4h.1c15.8 0 26.7-3.5 36.6-8.4l.8-.4.1-18.2z"/>
    </g>
  </g>
</svg>
