<svg xmlns="http://www.w3.org/2000/svg" viewBox="0 0 1200 1200">
  <g fill="#1D1D1B">
    <path d="M790.295 590.974h-31.08v125.923c0 20.283-2.538 36.138-13.64 47.256-9.835 9.824-26.96 17.43-50.744 17.43-18.714 0-34.256-6.03-46.625-18.382-9.83-9.838-13.003-19.98-13.003-44.404V590.974H604.12V725.45c0 58.996 44.413 84.674 90.077 84.674 64.384 0 96.098-34.878 96.098-87.846V590.974zM314.734 590.974h-115.45v216.304h31.085V706.74h84.364v-27.91H230.37v-59.94h84.364v-27.916M344.455 699.133c0 58.672 44.722 110.99 115.455 110.99 73.26 0 117.03-52.64 117.03-110.99 0-60.268-45.038-111.015-116.396-111.015-70.088 0-116.09 51.064-116.09 111.015zm32.046 0c0-47.578 35.84-82.46 84.044-82.46 48.52 0 84.366 34.882 84.366 82.46 0 47.24-35.845 82.45-84.366 82.45-48.203 0-84.043-35.21-84.043-82.45zM833.572 590.974v216.304h31.084V713.4h12.998c15.86 0 28.867 5.064 57.412 49.473l28.545 44.405h37.105c-14.907-20.616-20.298-27.906-29.497-42.813-16.494-26.963-28.545-46.943-48.203-59.936 23.154-9.205 36.152-27.92 36.152-52.975 0-37.422-27.275-60.58-71.045-60.58h-54.55zm31.084 26.64h19.98c30.127 0 42.178 12.38 42.5 32.67.322 18.078-9.2 35.207-42.5 35.207h-19.98v-67.875z"/></g><path
    d="M511.784 389.876H654.2V523.9H511.785V389.875zm108.585 88.852c.038-12.173-8.067-21.43-21.046-24.99 3.496-1.782 6.27-3.975 8.3-6.64 2.716-3.585 4.015-7.97 3.995-13.072.02-6.28-2.462-12.695-7.765-17.47-5.302-4.786-13.36-7.89-24.345-7.89h-30.362v96.527h35.626c12.714 0 21.64-3.452 27.382-8.545 5.75-5.093 8.213-11.767 8.213-17.92z"/>
    <path d="M602.643 476.81c-.01 3.183-.986 6.39-3.852 8.896-2.836 2.505-7.768 4.4-15.922 4.4h-16.436V463.77h15.7c7.318 0 12.513 1.485 15.775 3.79 3.242 2.338 4.708 5.41 4.736 9.247M589.333 445.257c3.066-2.207 4.53-5.318 4.55-9.99-.01-3.218-.922-5.963-3.232-8.023-2.313-2.05-6.25-3.506-12.596-3.506h-11.622v24.96h7.98c6.893 0 11.846-1.234 14.92-3.44"/>
  <g>
    <path d="M347.682 389.876h142.422V523.9H347.682V389.875zm108.58 88.852c.044-12.173-8.07-21.43-21.04-24.99 3.497-1.782 6.26-3.975 8.292-6.64 2.714-3.585 4-7.97 4-13.072 0-6.28-2.458-12.695-7.76-17.47-5.303-4.786-13.35-7.89-24.346-7.89h-30.376v96.527h35.64c12.71 0 21.63-3.452 27.373-8.545 5.747-5.093 8.227-11.767 8.218-17.92z"/>
    <path d="M425.232 445.257c3.047-2.207 4.532-5.318 4.56-9.99-.01-3.218-.927-5.963-3.25-8.023-2.316-2.05-6.24-3.506-12.6-3.506h-11.6v24.96h7.968c6.894 0 11.845-1.234 14.922-3.44M433.806 467.56c-3.26-2.303-8.457-3.788-15.77-3.788H402.34v26.333h16.42c8.16 0 13.072-1.894 15.933-4.4 2.847-2.504 3.838-5.712 3.848-8.896-.03-3.84-1.495-6.91-4.737-9.25"/>
  </g>
  <path d="M675.896 389.876h142.422V523.9H675.896V389.875zm114.13 89.477l-2.285 1.402c-11.03 6.728-23.017 10.34-33.915 10.34-23.32-.09-38.69-13.924-38.75-34.037.03-19.663 16.074-34.233 38.164-34.287 11.24.016 21.425 2.92 33.534 9.552l2.227 1.226v-17.964l-.956-.38c-13.653-5.387-24.22-7.784-34.673-7.784-16.137 0-30.15 5.332-40.13 14.38-9.98 9.047-15.9 21.835-15.9 36.5.01 10.223 4.23 22.2 13.262 31.708 9 9.52 22.87 16.45 41.905 16.435h.068c15.776 0 26.72-3.516 36.606-8.384l.846-.42v-18.287z"/>
</svg>
